<svg width="227" height="41" viewBox="0 0 227 41" fill="none" xmlns="http://www.w3.org/2000/svg">
<path d="M70.4233 28.1588C70.2471 28.1679 70.0708 28.1411 69.9053 28.0802C69.7397 28.0192 69.5883 27.9254 69.4603 27.8043C69.341 27.6823 69.248 27.5372 69.187 27.378C69.126 27.2188 69.0982 27.0489 69.1055 26.8787V11.0474C69.0913 10.8714 69.1157 10.6943 69.1769 10.5286C69.2382 10.3628 69.3347 10.2122 69.4601 10.0873C69.5854 9.96236 69.7364 9.86601 69.9027 9.8049C70.069 9.74378 70.2466 9.71937 70.4233 9.73334C70.5943 9.72623 70.7649 9.75392 70.9248 9.81471C71.0846 9.87551 71.2304 9.96814 71.3531 10.0869C71.4745 10.2147 71.5686 10.3657 71.6296 10.5309C71.6906 10.696 71.7172 10.8717 71.708 11.0474V26.8778C71.7175 27.0484 71.6907 27.2191 71.6295 27.3787C71.5683 27.5383 71.4741 27.6832 71.3528 27.804C71.2316 27.9249 71.0861 28.0188 70.926 28.0798C70.7658 28.1408 70.5945 28.1674 70.4233 28.1579V28.1588ZM84.9576 28.1588C84.7829 28.1647 84.6088 28.1349 84.4461 28.0711C84.2834 28.0074 84.1355 27.9111 84.0116 27.7882C83.8905 27.6702 83.7951 27.5286 83.7311 27.3723C83.6671 27.216 83.636 27.0483 83.6397 26.8795V18.1203C83.6867 16.9253 83.4125 15.7395 82.8456 14.6854C82.3425 13.8121 81.5893 13.1083 80.6824 12.6641C79.7178 12.2035 78.6589 11.9727 77.5894 11.9901C76.5565 11.9751 75.5336 12.1939 74.5979 12.6301C73.752 13.0199 73.0234 13.6239 72.485 14.382C71.9668 15.1221 71.695 16.0058 71.708 16.9082H69.8493C69.8728 15.5634 70.2705 14.2516 70.9983 13.1189C71.7138 12.012 72.7032 11.1072 73.8712 10.4915C75.099 9.84359 76.4706 9.5136 77.8598 9.53189C79.3507 9.50688 80.8249 9.84815 82.1521 10.5255C83.4121 11.1866 84.4516 12.1991 85.1436 13.4393C85.9143 14.8774 86.2931 16.4917 86.2422 18.1211V26.8761C86.2442 27.0448 86.2123 27.2121 86.1484 27.3683C86.0845 27.5245 85.99 27.6664 85.8703 27.7856C85.7506 27.9049 85.6082 27.9991 85.4515 28.0627C85.2948 28.1264 85.1268 28.1582 84.9576 28.1562V28.1588Z" fill="#3F75FF"/>
<path d="M96.6865 28.1588C96.5103 28.1679 96.334 28.1411 96.1685 28.0802C96.0029 28.0192 95.8515 27.9254 95.7235 27.8043C95.6043 27.6822 95.5113 27.5371 95.4503 27.378C95.3893 27.2188 95.3615 27.0489 95.3686 26.8787V11.0474C95.3545 10.8714 95.3789 10.6943 95.4401 10.5286C95.5013 10.3628 95.5979 10.2122 95.7232 10.0873C95.8485 9.96236 95.9996 9.86601 96.1659 9.8049C96.3322 9.74378 96.5098 9.71937 96.6865 9.73334C96.8575 9.72623 97.0281 9.75392 97.188 9.81471C97.3478 9.87551 97.4936 9.96814 97.6163 10.0869C97.7377 10.2147 97.8318 10.3657 97.8928 10.5309C97.9538 10.696 97.9804 10.8717 97.9711 11.0474V26.8778C97.9808 27.0484 97.9542 27.219 97.8931 27.3786C97.832 27.5382 97.7378 27.6832 97.6166 27.804C97.4954 27.9248 97.35 28.0188 97.1899 28.0798C97.0298 28.1408 96.8586 28.1674 96.6874 28.1579L96.6865 28.1588ZM111.221 28.1588C111.046 28.1647 110.872 28.1349 110.709 28.0711C110.547 28.0074 110.399 27.9111 110.275 27.7882C110.154 27.6702 110.058 27.5286 109.994 27.3723C109.93 27.216 109.899 27.0483 109.903 26.8795V18.1203C109.95 16.9252 109.676 15.7393 109.108 14.6854C108.605 13.8121 107.852 13.1083 106.945 12.6641C105.98 12.2035 104.921 11.9727 103.852 11.9901C102.819 11.9751 101.796 12.1939 100.86 12.6301C100.014 13.0198 99.2857 13.6239 98.7474 14.382C98.2288 15.122 97.9567 16.0057 97.9695 16.9082H96.1116C96.1349 15.5634 96.5327 14.2515 97.2606 13.1189C97.9761 12.0119 98.9654 11.1071 100.134 10.4915C101.361 9.84352 102.733 9.51353 104.122 9.53189C105.613 9.50688 107.087 9.84815 108.414 10.5255C109.674 11.1866 110.714 12.1991 111.406 13.4393C112.176 14.8774 112.555 16.4917 112.504 18.1211V26.8761C112.506 27.0448 112.474 27.2121 112.41 27.3683C112.346 27.5245 112.251 27.6664 112.132 27.7856C112.012 27.9049 111.87 27.9991 111.713 28.0627C111.556 28.1264 111.388 28.1582 111.219 28.1562L111.221 28.1588Z" fill="#3F75FF"/>
<path d="M130.013 28.3262C128.319 28.359 126.646 27.9465 125.163 27.1303C123.772 26.3521 122.626 25.2045 121.851 23.8153C121.033 22.3307 120.619 20.6586 120.651 18.9652C120.615 17.2742 121.004 15.6011 121.783 14.0981C122.504 12.7313 123.585 11.5855 124.909 10.7831C126.298 9.95897 127.89 9.53907 129.507 9.57098C131.079 9.53441 132.63 9.9369 133.985 10.7329C135.255 11.5056 136.281 12.6207 136.942 13.9493C137.66 15.4047 138.019 17.0097 137.99 18.6311C137.997 18.7901 137.971 18.9488 137.912 19.0967C137.853 19.2447 137.764 19.3786 137.649 19.4896C137.41 19.7079 137.094 19.8228 136.771 19.8092H122.408V17.6485H137.044L135.594 18.6932C135.636 17.486 135.393 16.2858 134.884 15.1895C134.424 14.198 133.692 13.357 132.771 12.7644C131.793 12.1625 130.659 11.8582 129.51 11.8889C128.319 11.8631 127.146 12.1788 126.13 12.7984C125.158 13.4073 124.379 14.277 123.881 15.3076C123.335 16.4479 123.063 17.6994 123.087 18.9626C123.062 20.2324 123.37 21.4867 123.983 22.6006C124.559 23.6359 125.406 24.4969 126.432 25.0928C127.522 25.7129 128.76 26.0272 130.015 26.0023C130.85 25.9971 131.678 25.8535 132.466 25.5773C133.186 25.3521 133.857 24.9921 134.443 24.5165C134.681 24.3184 134.978 24.2056 135.288 24.1961C135.581 24.179 135.87 24.2697 136.099 24.4511C136.231 24.5587 136.339 24.6919 136.418 24.8426C136.496 24.9932 136.543 25.1582 136.556 25.3274C136.561 25.4834 136.529 25.6384 136.461 25.7792C136.393 25.9199 136.292 26.0423 136.167 26.1358C135.321 26.8218 134.36 27.3523 133.328 27.7023C132.268 28.1016 131.146 28.3127 130.013 28.3262V28.3262Z" fill="#3F75FF"/>
<path d="M153.337 28.3262C151.671 28.3563 150.028 27.9312 148.587 27.0971C147.214 26.2908 146.083 25.1338 145.309 23.7456C144.497 22.2831 144.083 20.6341 144.109 18.9626C144.08 17.2866 144.475 15.6303 145.258 14.1465C145.988 12.7707 147.073 11.614 148.401 10.7958C149.786 9.96098 151.38 9.53478 152.999 9.56674C154.311 9.55348 155.609 9.82952 156.802 10.3751C157.994 10.9392 159.041 11.7689 159.86 12.8001C159.975 12.9085 160.06 13.0442 160.108 13.1944C160.155 13.3446 160.163 13.5044 160.132 13.6586C160.047 13.9856 159.842 14.2687 159.557 14.4508C159.44 14.5384 159.305 14.6002 159.163 14.6322C159.02 14.6641 158.872 14.6655 158.728 14.6361C158.413 14.5735 158.132 14.4 157.934 14.1474C157.33 13.4341 156.573 12.8644 155.719 12.4798C154.866 12.0953 153.936 11.9056 153 11.9246C151.826 11.9008 150.671 12.2164 149.673 12.8333C148.712 13.4425 147.94 14.3056 147.442 15.3263C146.895 16.4599 146.623 17.7058 146.648 18.9635C146.626 20.2161 146.916 21.4546 147.494 22.5675C148.035 23.6006 148.854 24.4634 149.859 25.0597C150.913 25.6767 152.118 25.9915 153.341 25.9692C154.16 25.9781 154.976 25.8588 155.757 25.6156C156.474 25.3884 157.136 25.0156 157.701 24.5208C157.936 24.3113 158.232 24.1816 158.546 24.1502C158.692 24.1394 158.839 24.1576 158.979 24.2039C159.118 24.2501 159.247 24.3235 159.357 24.4196C159.61 24.6336 159.773 24.9342 159.814 25.262C159.832 25.4127 159.812 25.5656 159.756 25.7068C159.7 25.848 159.61 25.9729 159.493 26.0703C157.812 27.5892 155.605 28.398 153.337 28.3262V28.3262Z" fill="#3F75FF"/>
<path d="M167.431 12.6641C167.276 12.6691 167.121 12.6434 166.976 12.5885C166.831 12.5337 166.698 12.4507 166.585 12.3445C166.475 12.2442 166.388 12.1216 166.329 11.985C166.27 11.8484 166.241 11.701 166.244 11.5523C166.239 11.3986 166.267 11.2455 166.326 11.1032C166.385 10.961 166.473 10.8327 166.585 10.727C166.698 10.6209 166.831 10.5381 166.976 10.4832C167.121 10.4284 167.276 10.4026 167.431 10.4074H176.046C176.201 10.4027 176.355 10.4286 176.5 10.4834C176.645 10.5382 176.778 10.621 176.89 10.727C177.003 10.8327 177.091 10.961 177.15 11.1032C177.209 11.2455 177.237 11.3986 177.232 11.5523C177.234 11.701 177.205 11.8484 177.147 11.985C177.088 12.1216 177 12.2442 176.89 12.3445C176.778 12.4507 176.645 12.5336 176.5 12.5884C176.355 12.6433 176.201 12.669 176.046 12.6641H167.431ZM175.847 28.1579C174.742 28.1804 173.652 27.8982 172.698 27.3425C171.744 26.7868 170.962 25.9791 170.439 25.0087C169.885 23.9791 169.606 22.8251 169.628 21.6571V5.18669C169.622 5.01388 169.65 4.84156 169.711 4.67963C169.772 4.51771 169.864 4.36939 169.983 4.24319C170.103 4.11988 170.248 4.02321 170.408 3.9595C170.568 3.89579 170.74 3.86646 170.913 3.87344C171.087 3.86689 171.262 3.89637 171.425 3.96004C171.588 4.02372 171.735 4.12022 171.859 4.2435C171.983 4.36678 172.08 4.51418 172.144 4.67648C172.208 4.83878 172.237 5.01248 172.231 5.18669V21.6571C172.189 22.6905 172.553 23.6992 173.246 24.4698C173.574 24.8286 173.977 25.1122 174.427 25.3012C174.876 25.4901 175.361 25.58 175.848 25.5646H176.761C176.925 25.559 177.089 25.5891 177.241 25.653C177.393 25.7169 177.529 25.8129 177.639 25.9343C177.87 26.1936 177.993 26.5314 177.981 26.8778C177.987 27.0526 177.953 27.2264 177.883 27.3866C177.813 27.5467 177.707 27.6892 177.575 27.8035C177.293 28.0437 176.931 28.1701 176.56 28.1579H175.847Z" fill="#3F75FF"/>
<path d="M193.962 28.3263C192.268 28.3593 190.595 27.9468 189.112 27.1303C187.721 26.352 186.574 25.2044 185.799 23.8153C184.981 22.3307 184.567 20.6586 184.598 18.9652C184.563 17.2741 184.952 15.6009 185.731 14.0981C186.453 12.7313 187.533 11.5855 188.857 10.7831C190.246 9.9591 191.838 9.5392 193.454 9.571C195.027 9.53427 196.578 9.93676 197.933 10.733C199.204 11.5059 200.229 12.6209 200.891 13.9493C201.608 15.4048 201.968 17.0098 201.938 18.6312C201.945 18.7901 201.919 18.9488 201.86 19.0968C201.801 19.2447 201.711 19.3786 201.597 19.4897C201.358 19.708 201.042 19.823 200.718 19.8093H186.36V17.6486H200.996L199.546 18.6932C199.588 17.486 199.344 16.2859 198.836 15.1895C198.376 14.1982 197.643 13.3573 196.723 12.7645C195.744 12.1625 194.611 11.8582 193.461 11.8889C192.27 11.8632 191.097 12.1789 190.081 12.7985C189.109 13.4072 188.33 14.277 187.833 15.3077C187.287 16.4479 187.014 17.6993 187.038 18.9627C187.013 20.2324 187.322 21.4866 187.934 22.6007C188.511 23.6359 189.357 24.4969 190.384 25.0929C191.474 25.7131 192.712 26.0274 193.967 26.0024C194.802 25.9973 195.63 25.8536 196.418 25.5774C197.139 25.352 197.81 24.992 198.396 24.5166C198.633 24.3183 198.931 24.2054 199.241 24.1961C199.534 24.179 199.822 24.2698 200.052 24.4511C200.184 24.5589 200.292 24.6921 200.37 24.8427C200.449 24.9933 200.496 25.1582 200.509 25.3275C200.514 25.4834 200.481 25.6383 200.413 25.7791C200.346 25.9198 200.245 26.0421 200.12 26.1358C199.274 26.8217 198.313 27.3522 197.281 27.7024C196.22 28.1021 195.096 28.3133 193.962 28.3263V28.3263Z" fill="#3F75FF"/>
<path d="M217.452 28.3262C215.771 28.3518 214.114 27.9273 212.653 27.0971C211.253 26.2974 210.093 25.1405 209.29 23.7456C208.454 22.2788 208.028 20.6153 208.057 18.9286C208.03 17.2572 208.444 15.6082 209.257 14.1457C210.035 12.7363 211.185 11.5651 212.582 10.758C213.978 9.95091 215.569 9.53847 217.184 9.56504C218.605 9.54419 220.01 9.87385 221.273 10.5247C222.444 11.1249 223.452 11.9972 224.213 13.0679V3.16539C224.204 2.98838 224.233 2.81144 224.297 2.6461C224.361 2.48076 224.459 2.33071 224.585 2.20574C224.847 1.97783 225.184 1.85226 225.531 1.85226C225.879 1.85226 226.216 1.97783 226.478 2.20574C226.604 2.33088 226.702 2.48097 226.766 2.64629C226.83 2.81161 226.858 2.98846 226.849 3.16539V19.0604C226.829 20.7226 226.381 22.3519 225.548 23.7923C224.747 25.173 223.592 26.317 222.202 27.1073C220.756 27.9279 219.116 28.3487 217.452 28.3262ZM217.452 25.9683C218.682 25.9889 219.893 25.6681 220.95 25.0418C221.968 24.4337 222.809 23.5696 223.387 22.536C223.976 21.4282 224.283 20.1939 224.283 18.9405C224.283 17.6872 223.976 16.4529 223.387 15.345C222.817 14.3065 221.976 13.4398 220.954 12.8358C220.171 12.3731 219.303 12.0708 218.401 11.9466C217.499 11.8224 216.581 11.8788 215.701 12.1125C214.821 12.3461 213.997 12.7524 213.277 13.3075C212.556 13.8625 211.954 14.5553 211.506 15.345C210.907 16.4496 210.594 17.6852 210.594 18.9405C210.594 20.1959 210.907 21.4315 211.506 22.536C212.095 23.5723 212.946 24.4372 213.974 25.0452C215.026 25.6659 216.23 25.9853 217.452 25.9683V25.9683Z" fill="#3F75FF"/>
<path d="M48.2678 13.0203H36.6567L34.2871 15.3782V26.9679C34.2871 27.2092 34.3833 27.4405 34.5544 27.6111C34.7256 27.7816 34.9578 27.8774 35.1998 27.8774H48.2678C48.5098 27.8774 48.742 27.7816 48.9132 27.6111C49.0843 27.4405 49.1805 27.2092 49.1805 26.9679V13.9451C49.1825 13.8257 49.1609 13.707 49.1169 13.5959C49.0729 13.4847 49.0074 13.3833 48.9241 13.2975C48.8407 13.2116 48.7412 13.1429 48.6313 13.0953C48.5213 13.0478 48.403 13.0223 48.2831 13.0203H48.2678ZM47.7193 26.4069H35.7483V16.014L37.2504 14.5171H47.7099L47.7193 26.4069Z" fill="#3F75FF"/>
<path d="M37.8287 11.0483H36.9006V12.2723H37.8287V11.0483Z" fill="#3F75FF"/>
<path d="M39.2821 11.0483H38.354V12.2723H39.2821V11.0483Z" fill="#3F75FF"/>
<path d="M40.7398 11.0483H39.8118V12.2723H40.7398V11.0483Z" fill="#3F75FF"/>
<path d="M42.1934 11.0483H41.2654V12.2723H42.1934V11.0483Z" fill="#3F75FF"/>
<path d="M43.6505 11.0483H42.7224V12.2723H43.6505V11.0483Z" fill="#3F75FF"/>
<path d="M46.5609 11.0483H45.6328V12.2723H46.5609V11.0483Z" fill="#3F75FF"/>
<path d="M45.1038 11.0483H44.1758V12.2723H45.1038V11.0483Z" fill="#3F75FF"/>
<path d="M37.5549 11.1035H37.1796V8.84591L36.0707 7.74686H35.7935V7.37286H36.2276L37.5549 8.69121V11.1035Z" fill="#3F75FF"/>
<path d="M35.2407 8.24074C35.1058 8.24074 34.9738 8.20086 34.8616 8.12614C34.7494 8.05142 34.6619 7.94522 34.6103 7.82096C34.5586 7.69671 34.5451 7.55998 34.5715 7.42808C34.5978 7.29617 34.6628 7.175 34.7582 7.0799C34.8537 6.98481 34.9752 6.92004 35.1076 6.8938C35.24 6.86757 35.3772 6.88103 35.5019 6.9325C35.6266 6.98397 35.7332 7.07112 35.8081 7.18295C35.8831 7.29478 35.9231 7.42625 35.9231 7.56074C35.9231 7.74108 35.8513 7.91405 35.7233 8.04157C35.5953 8.16909 35.4217 8.24074 35.2407 8.24074V8.24074ZM35.2407 7.25304C35.1798 7.25304 35.1203 7.27103 35.0697 7.30475C35.019 7.33847 34.9796 7.38639 34.9563 7.44246C34.9329 7.49853 34.9269 7.56023 34.9387 7.61975C34.9506 7.67927 34.9799 7.73395 35.023 7.77686C35.0661 7.81978 35.1209 7.849 35.1807 7.86084C35.2404 7.87268 35.3023 7.8666 35.3586 7.84338C35.4149 7.82015 35.4629 7.78082 35.4968 7.73036C35.5306 7.6799 35.5487 7.62058 35.5487 7.55989C35.5485 7.47857 35.5159 7.40066 35.4582 7.34316C35.4005 7.28566 35.3223 7.25326 35.2407 7.25304V7.25304Z" fill="#3F75FF"/>
<path d="M46.2862 11.1035H45.9109V8.69121L47.2339 7.37286H47.6681V7.74686H47.3891L46.2862 8.84591V11.1035Z" fill="#3F75FF"/>
<path d="M48.22 8.24074C48.085 8.24074 47.9531 8.20086 47.8409 8.12614C47.7287 8.05142 47.6412 7.94522 47.5895 7.82096C47.5379 7.69671 47.5244 7.55998 47.5507 7.42808C47.577 7.29617 47.642 7.175 47.7375 7.0799C47.8329 6.98481 47.9545 6.92004 48.0869 6.8938C48.2192 6.86757 48.3564 6.88103 48.4811 6.9325C48.6058 6.98397 48.7124 7.07112 48.7874 7.18295C48.8624 7.29478 48.9024 7.42625 48.9024 7.56074C48.9024 7.74108 48.8305 7.91405 48.7025 8.04157C48.5746 8.16909 48.401 8.24074 48.22 8.24074V8.24074ZM48.22 7.25304C48.1591 7.25304 48.0996 7.27103 48.0489 7.30475C47.9983 7.33847 47.9588 7.38639 47.9355 7.44246C47.9122 7.49853 47.9061 7.56023 47.918 7.61975C47.9299 7.67927 47.9592 7.73395 48.0023 7.77686C48.0453 7.81978 48.1002 7.849 48.1599 7.86084C48.2197 7.87268 48.2816 7.8666 48.3378 7.84338C48.3941 7.82015 48.4422 7.78082 48.476 7.73036C48.5099 7.6799 48.5279 7.62058 48.5279 7.55989C48.5277 7.47857 48.4952 7.40066 48.4375 7.34316C48.3798 7.28566 48.3016 7.25326 48.22 7.25304Z" fill="#3F75FF"/>
<path d="M41.918 11.1035H41.5427V7.83782L42.8657 6.51947H43.3042V6.89347H43.0218L41.9189 7.99252L41.918 11.1035Z" fill="#3F75FF"/>
<path d="M43.856 7.38817C43.721 7.38817 43.5891 7.34829 43.4769 7.27357C43.3646 7.19885 43.2772 7.09265 43.2255 6.96839C43.1739 6.84414 43.1604 6.70741 43.1867 6.57551C43.213 6.4436 43.278 6.32244 43.3735 6.22734C43.4689 6.13224 43.5905 6.06747 43.7229 6.04123C43.8552 6.015 43.9924 6.02846 44.1171 6.07993C44.2418 6.1314 44.3484 6.21855 44.4234 6.33038C44.4984 6.44221 44.5384 6.57368 44.5384 6.70817C44.5384 6.88852 44.4665 7.06148 44.3385 7.189C44.2105 7.31653 44.037 7.38817 43.856 7.38817V7.38817ZM43.856 6.40047C43.7951 6.40047 43.7355 6.41847 43.6849 6.45218C43.6343 6.4859 43.5948 6.53382 43.5715 6.58989C43.5482 6.64596 43.5421 6.70766 43.554 6.76718C43.5658 6.8267 43.5952 6.88138 43.6382 6.92429C43.6813 6.96721 43.7362 6.99643 43.7959 7.00827C43.8556 7.02011 43.9176 7.01404 43.9738 6.99081C44.0301 6.96759 44.0782 6.92826 44.112 6.8778C44.1459 6.82733 44.1639 6.76801 44.1639 6.70732C44.1639 6.62586 44.1315 6.54772 44.0738 6.49004C44.0161 6.43236 43.9377 6.39984 43.856 6.39962V6.40047Z" fill="#3F75FF"/>
<path d="M44.8293 11.1044H44.454V7.83784L45.6703 6.62914V6.11914L44.1648 4.61889V3.79694H44.5401V4.46419L46.0457 5.96444V6.78554L44.8293 7.99424V11.1044Z" fill="#3F75FF"/>
<path d="M39.0075 11.1019H38.6321V7.225L37.5292 6.12595H36.2207V5.75195H37.6844L39.0075 7.0703V11.1019Z" fill="#3F75FF"/>
<path d="M40.4644 5.4451H40.0891V11.1035H40.4644V5.4451Z" fill="#3F75FF"/>
<path d="M35.6687 6.62065C35.5338 6.62065 35.4018 6.58077 35.2896 6.50605C35.1774 6.43133 35.0899 6.32513 35.0383 6.20088C34.9866 6.07662 34.9731 5.9399 34.9994 5.80799C35.0258 5.67608 35.0908 5.55492 35.1862 5.45982C35.2816 5.36472 35.4032 5.29995 35.5356 5.27372C35.668 5.24748 35.8052 5.26095 35.9299 5.31241C36.0546 5.36388 36.1611 5.45104 36.2361 5.56286C36.3111 5.67469 36.3511 5.80616 36.3511 5.94065C36.3511 6.121 36.2792 6.29396 36.1513 6.42148C36.0233 6.54901 35.8497 6.62065 35.6687 6.62065V6.62065ZM35.6687 5.63295C35.6078 5.63295 35.5483 5.65095 35.4977 5.68466C35.447 5.71838 35.4075 5.7663 35.3842 5.82237C35.3609 5.87844 35.3548 5.94014 35.3667 5.99966C35.3786 6.05919 35.4079 6.11386 35.451 6.15678C35.494 6.19969 35.5489 6.22891 35.6086 6.24075C35.6684 6.25259 35.7303 6.24652 35.7866 6.22329C35.8428 6.20007 35.8909 6.16074 35.9248 6.11028C35.9586 6.05982 35.9767 6.00049 35.9767 5.9398C35.9768 5.89943 35.9689 5.85944 35.9535 5.82211C35.938 5.78479 35.9154 5.75086 35.8868 5.72228C35.8582 5.69369 35.8242 5.67101 35.7868 5.65554C35.7493 5.64007 35.7092 5.6321 35.6687 5.6321V5.63295Z" fill="#3F75FF"/>
<path d="M40.2769 5.62953C40.1419 5.62953 40.01 5.58965 39.8978 5.51493C39.7855 5.44021 39.6981 5.33401 39.6464 5.20976C39.5948 5.0855 39.5813 4.94878 39.6076 4.81687C39.6339 4.68496 39.6989 4.5638 39.7944 4.4687C39.8898 4.3736 40.0114 4.30884 40.1438 4.2826C40.2761 4.25636 40.4133 4.26983 40.538 4.32129C40.6627 4.37276 40.7693 4.45992 40.8443 4.57174C40.9193 4.68357 40.9593 4.81504 40.9593 4.94953C40.9593 5.12988 40.8874 5.30284 40.7594 5.43036C40.6314 5.55789 40.4579 5.62953 40.2769 5.62953ZM40.2769 4.64183C40.216 4.64183 40.1564 4.65983 40.1058 4.69354C40.0552 4.72726 40.0157 4.77519 39.9924 4.83125C39.9691 4.88732 39.963 4.94902 39.9749 5.00854C39.9867 5.06807 40.0161 5.12274 40.0591 5.16566C40.1022 5.20857 40.1571 5.2378 40.2168 5.24964C40.2765 5.26148 40.3385 5.2554 40.3947 5.23217C40.451 5.20895 40.4991 5.16962 40.5329 5.11916C40.5668 5.0687 40.5848 5.00937 40.5848 4.94868C40.5848 4.86722 40.5524 4.78908 40.4947 4.7314C40.437 4.67372 40.3586 4.64121 40.2769 4.64098V4.64183Z" fill="#3F75FF"/>
<path d="M44.3516 3.98222C44.2166 3.98222 44.0847 3.94234 43.9725 3.86762C43.8602 3.7929 43.7728 3.6867 43.7211 3.56245C43.6695 3.43819 43.656 3.30147 43.6823 3.16956C43.7086 3.03765 43.7736 2.91649 43.8691 2.82139C43.9645 2.72629 44.0861 2.66153 44.2185 2.63529C44.3508 2.60905 44.488 2.62252 44.6127 2.67399C44.7374 2.72545 44.844 2.81261 44.919 2.92444C44.994 3.03626 45.034 3.16773 45.034 3.30222C45.034 3.48257 44.9621 3.65553 44.8341 3.78306C44.7061 3.91058 44.5326 3.98222 44.3516 3.98222V3.98222ZM44.3516 2.99367C44.2907 2.99367 44.2312 3.01167 44.1805 3.04539C44.1299 3.0791 44.0904 3.12703 44.0671 3.1831C44.0438 3.23917 44.0377 3.30086 44.0496 3.36039C44.0615 3.41991 44.0908 3.47459 44.1339 3.5175C44.1769 3.56041 44.2318 3.58964 44.2915 3.60148C44.3513 3.61332 44.4132 3.60724 44.4694 3.58402C44.5257 3.56079 44.5738 3.52146 44.6076 3.471C44.6415 3.42054 44.6595 3.36121 44.6595 3.30052C44.6593 3.21921 44.6268 3.14129 44.5691 3.0838C44.5114 3.0263 44.4332 2.9939 44.3516 2.99367Z" fill="#3F75FF"/>
<path d="M43.3758 9.22504H43.0005V11.1035H43.3758V9.22504Z" fill="#3F75FF"/>
<path d="M43.187 9.41289C43.0521 9.41289 42.9201 9.37301 42.8079 9.29829C42.6957 9.22357 42.6082 9.11737 42.5566 8.99311C42.5049 8.86886 42.4914 8.73213 42.5178 8.60023C42.5441 8.46832 42.6091 8.34715 42.7045 8.25205C42.7999 8.15695 42.9215 8.09219 43.0539 8.06595C43.1863 8.03972 43.3235 8.05318 43.4482 8.10465C43.5729 8.15612 43.6795 8.24327 43.7544 8.3551C43.8294 8.46692 43.8694 8.5984 43.8694 8.73289C43.8694 8.91324 43.7975 9.0862 43.6696 9.21372C43.5416 9.34125 43.368 9.41289 43.187 9.41289V9.41289ZM43.187 8.42519C43.1261 8.42519 43.0666 8.44318 43.016 8.4769C42.9653 8.51062 42.9259 8.55854 42.9025 8.61461C42.8792 8.67068 42.8731 8.73238 42.885 8.7919C42.8969 8.85143 42.9262 8.9061 42.9693 8.94901C43.0124 8.99193 43.0672 9.02115 43.127 9.03299C43.1867 9.04483 43.2486 9.03876 43.3049 9.01553C43.3611 8.99231 43.4092 8.95298 43.4431 8.90251C43.4769 8.85205 43.495 8.79273 43.495 8.73204C43.4951 8.69167 43.4872 8.65168 43.4718 8.61435C43.4564 8.57702 43.4337 8.5431 43.4051 8.51451C43.3765 8.48593 43.3425 8.46325 43.3051 8.44778C43.2677 8.4323 43.2276 8.42434 43.187 8.42434V8.42519Z" fill="#3F75FF"/>
<path d="M46.5609 28.6263H45.6328V29.8503H46.5609V28.6263Z" fill="#3F75FF"/>
<path d="M45.1073 28.6263H44.1792V29.8503H45.1073V28.6263Z" fill="#3F75FF"/>
<path d="M43.6505 28.6263H42.7224V29.8503H43.6505V28.6263Z" fill="#3F75FF"/>
<path d="M42.1969 28.6263H41.2688V29.8503H42.1969V28.6263Z" fill="#3F75FF"/>
<path d="M40.7398 28.6263H39.8118V29.8503H40.7398V28.6263Z" fill="#3F75FF"/>
<path d="M37.8287 28.6263H36.9006V29.8503H37.8287V28.6263Z" fill="#3F75FF"/>
<path d="M39.2865 28.6263H38.3584V29.8503H39.2865V28.6263Z" fill="#3F75FF"/>
<path d="M47.6689 33.5248H47.2339L45.9109 32.2022V29.7899H46.2862V32.0475L47.3891 33.1525H47.6681L47.6689 33.5248Z" fill="#3F75FF"/>
<path d="M48.22 34.0212C48.085 34.0212 47.9531 33.9813 47.8409 33.9066C47.7287 33.8319 47.6412 33.7257 47.5895 33.6014C47.5379 33.4772 47.5244 33.3405 47.5507 33.2086C47.577 33.0767 47.642 32.9555 47.7375 32.8604C47.8329 32.7653 47.9545 32.7005 48.0869 32.6743C48.2192 32.6481 48.3564 32.6615 48.4811 32.713C48.6058 32.7645 48.7124 32.8516 48.7874 32.9634C48.8624 33.0753 48.9024 33.2067 48.9024 33.3412C48.9024 33.5216 48.8305 33.6945 48.7025 33.8221C48.5746 33.9496 48.401 34.0212 48.22 34.0212ZM48.22 33.0327C48.1591 33.0327 48.0996 33.0507 48.0489 33.0844C47.9983 33.1181 47.9588 33.166 47.9355 33.2221C47.9122 33.2782 47.9061 33.3399 47.918 33.3994C47.9299 33.4589 47.9592 33.5136 48.0023 33.5565C48.0453 33.5994 48.1002 33.6286 48.1599 33.6405C48.2197 33.6523 48.2816 33.6462 48.3378 33.623C48.3941 33.5998 48.4422 33.5605 48.476 33.51C48.5099 33.4595 48.5279 33.4002 48.5279 33.3395C48.528 33.2991 48.5202 33.2591 48.5048 33.2217C48.4893 33.1843 48.4667 33.1504 48.4381 33.1217C48.4095 33.0931 48.3755 33.0703 48.3381 33.0547C48.3007 33.0392 48.2605 33.0311 48.22 33.031V33.0327Z" fill="#3F75FF"/>
<path d="M36.2276 33.5248H35.7935V33.1508H36.0724L37.1813 32.0458V29.7899H37.5566V32.2022L36.2276 33.5248Z" fill="#3F75FF"/>
<path d="M35.2407 34.0212C35.1058 34.0212 34.9738 33.9813 34.8616 33.9066C34.7494 33.8319 34.6619 33.7257 34.6103 33.6014C34.5586 33.4772 34.5451 33.3405 34.5715 33.2086C34.5978 33.0767 34.6628 32.9555 34.7582 32.8604C34.8537 32.7653 34.9752 32.7005 35.1076 32.6743C35.24 32.6481 35.3772 32.6615 35.5019 32.713C35.6266 32.7645 35.7332 32.8516 35.8081 32.9634C35.8831 33.0753 35.9231 33.2067 35.9231 33.3412C35.9231 33.5216 35.8513 33.6945 35.7233 33.8221C35.5953 33.9496 35.4217 34.0212 35.2407 34.0212ZM35.2407 33.0327C35.1798 33.0327 35.1203 33.0507 35.0697 33.0844C35.019 33.1181 34.9796 33.166 34.9563 33.2221C34.9329 33.2782 34.9269 33.3399 34.9387 33.3994C34.9506 33.4589 34.9799 33.5136 35.023 33.5565C35.0661 33.5994 35.1209 33.6286 35.1807 33.6405C35.2404 33.6523 35.3023 33.6462 35.3586 33.623C35.4149 33.5998 35.4629 33.5605 35.4968 33.51C35.5306 33.4595 35.5487 33.4002 35.5487 33.3395C35.5488 33.2991 35.5409 33.2591 35.5255 33.2217C35.5101 33.1843 35.4874 33.1504 35.4588 33.1217C35.4302 33.0931 35.3963 33.0703 35.3588 33.0547C35.3214 33.0392 35.2813 33.0311 35.2407 33.031V33.0327Z" fill="#3F75FF"/>
<path d="M40.5957 34.3748H40.1572V34.0008H40.4404L41.5434 32.9018V29.7908H41.9187V33.0565L40.5957 34.3748Z" fill="#3F75FF"/>
<path d="M39.6089 34.8678C39.4739 34.8678 39.342 34.828 39.2298 34.7532C39.1176 34.6785 39.0301 34.5723 38.9785 34.4481C38.9268 34.3238 38.9133 34.1871 38.9396 34.0552C38.966 33.9233 39.0309 33.8021 39.1264 33.707C39.2218 33.6119 39.3434 33.5471 39.4758 33.5209C39.6082 33.4947 39.7454 33.5081 39.8701 33.5596C39.9947 33.6111 40.1013 33.6982 40.1763 33.8101C40.2513 33.9219 40.2913 34.0533 40.2913 34.1878C40.2913 34.3682 40.2194 34.5411 40.0914 34.6687C39.9635 34.7962 39.7899 34.8678 39.6089 34.8678V34.8678ZM39.6089 33.8801C39.548 33.8801 39.4885 33.8981 39.4378 33.9319C39.3872 33.9656 39.3477 34.0135 39.3244 34.0696C39.3011 34.1256 39.295 34.1873 39.3069 34.2469C39.3188 34.3064 39.3481 34.3611 39.3912 34.404C39.4342 34.4469 39.4891 34.4761 39.5488 34.4879C39.6086 34.4998 39.6705 34.4937 39.7268 34.4705C39.783 34.4473 39.8311 34.4079 39.8649 34.3575C39.8988 34.307 39.9168 34.2477 39.9168 34.187C39.9166 34.1057 39.8841 34.0278 39.8264 33.9703C39.7687 33.9128 39.6905 33.8804 39.6089 33.8801V33.8801Z" fill="#3F75FF"/>
<path d="M39.2976 37.1025H38.9223V36.4318L37.4202 34.935V34.1105L38.6331 32.9018V29.7908H39.0085V33.0565L37.7946 34.2643V34.7794L39.2968 36.2763L39.2976 37.1025Z" fill="#3F75FF"/>
<path d="M47.2443 35.1449H45.7805L44.4541 33.8223V29.7899H44.8294V33.6693L45.9383 34.7743H47.2468L47.2443 35.1449Z" fill="#3F75FF"/>
<path d="M43.3758 29.7899H43.0005V35.4518H43.3758V29.7899Z" fill="#3F75FF"/>
<path d="M47.7918 35.6396C47.6568 35.6396 47.5249 35.5998 47.4126 35.525C47.3004 35.4503 47.213 35.3441 47.1613 35.2199C47.1097 35.0956 47.0962 34.9589 47.1225 34.827C47.1488 34.6951 47.2138 34.5739 47.3093 34.4788C47.4047 34.3837 47.5263 34.3189 47.6586 34.2927C47.791 34.2665 47.9282 34.2799 48.0529 34.3314C48.1776 34.3829 48.2842 34.47 48.3592 34.5818C48.4342 34.6937 48.4742 34.8251 48.4742 34.9596C48.4742 35.14 48.4023 35.3129 48.2743 35.4405C48.1463 35.568 47.9728 35.6396 47.7918 35.6396V35.6396ZM47.7918 34.6511C47.7309 34.6511 47.6713 34.6691 47.6207 34.7028C47.5701 34.7365 47.5306 34.7844 47.5073 34.8405C47.484 34.8966 47.4779 34.9583 47.4898 35.0178C47.5016 35.0773 47.531 35.132 47.574 35.1749C47.6171 35.2178 47.672 35.247 47.7317 35.2589C47.7914 35.2707 47.8533 35.2647 47.9096 35.2414C47.9659 35.2182 48.014 35.1789 48.0478 35.1284C48.0817 35.078 48.0997 35.0186 48.0997 34.9579C48.0995 34.8766 48.067 34.7987 48.0093 34.7412C47.9516 34.6837 47.8734 34.6513 47.7918 34.6511V34.6511Z" fill="#3F75FF"/>
<path d="M43.187 36.6282C43.0521 36.6282 42.9201 36.5883 42.8079 36.5136C42.6957 36.4388 42.6082 36.3326 42.5566 36.2084C42.5049 36.0841 42.4914 35.9474 42.5178 35.8155C42.5441 35.6836 42.6091 35.5624 42.7045 35.4673C42.7999 35.3722 42.9215 35.3075 43.0539 35.2812C43.1863 35.255 43.3235 35.2685 43.4482 35.3199C43.5729 35.3714 43.6795 35.4585 43.7544 35.5704C43.8294 35.6822 43.8694 35.8137 43.8694 35.9482C43.8694 36.1285 43.7975 36.3015 43.6696 36.429C43.5416 36.5565 43.368 36.6282 43.187 36.6282V36.6282ZM43.187 35.6405C43.1261 35.6405 43.0666 35.6585 43.016 35.6922C42.9653 35.7259 42.9259 35.7738 42.9025 35.8299C42.8792 35.8859 42.8731 35.9476 42.885 36.0072C42.8969 36.0667 42.9262 36.1214 42.9693 36.1643C43.0124 36.2072 43.0672 36.2364 43.127 36.2483C43.1867 36.2601 43.2486 36.254 43.3049 36.2308C43.3611 36.2076 43.4092 36.1682 43.4431 36.1178C43.4769 36.0673 43.495 36.008 43.495 35.9473C43.4951 35.9069 43.4872 35.8669 43.4718 35.8296C43.4564 35.7923 43.4337 35.7584 43.4051 35.7298C43.3765 35.7012 43.3425 35.6785 43.3051 35.663C43.2677 35.6476 43.2276 35.6396 43.187 35.6396V35.6405Z" fill="#3F75FF"/>
<path d="M39.1089 38.278C38.9739 38.278 38.842 38.2381 38.7298 38.1634C38.6176 38.0887 38.5301 37.9825 38.4785 37.8583C38.4268 37.734 38.4133 37.5973 38.4396 37.4654C38.466 37.3335 38.531 37.2123 38.6264 37.1172C38.7218 37.0221 38.8434 36.9573 38.9758 36.9311C39.1082 36.9049 39.2454 36.9183 39.3701 36.9698C39.4947 37.0213 39.6013 37.1084 39.6763 37.2202C39.7513 37.3321 39.7913 37.4635 39.7913 37.598C39.7913 37.7784 39.7194 37.9513 39.5914 38.0789C39.4635 38.2064 39.2899 38.278 39.1089 38.278V38.278ZM39.1089 37.2903C39.048 37.2903 38.9885 37.3083 38.9378 37.342C38.8872 37.3758 38.8477 37.4237 38.8244 37.4798C38.8011 37.5358 38.795 37.5975 38.8069 37.657C38.8188 37.7166 38.8481 37.7712 38.8912 37.8142C38.9342 37.8571 38.9891 37.8863 39.0488 37.8981C39.1086 37.91 39.1705 37.9039 39.2268 37.8807C39.283 37.8574 39.3311 37.8181 39.365 37.7677C39.3988 37.7172 39.4168 37.6579 39.4168 37.5972C39.417 37.5568 39.4091 37.5168 39.3937 37.4795C39.3782 37.4422 39.3556 37.4082 39.327 37.3796C39.2984 37.3511 39.2644 37.3284 39.227 37.3129C39.1895 37.2974 39.1494 37.2895 39.1089 37.2895V37.2903Z" fill="#3F75FF"/>
<path d="M40.4644 29.7899H40.0891V31.6718H40.4644V29.7899Z" fill="#3F75FF"/>
<path d="M40.2769 32.8474C40.1419 32.8474 40.01 32.8075 39.8978 32.7328C39.7855 32.658 39.6981 32.5518 39.6464 32.4276C39.5948 32.3033 39.5813 32.1666 39.6076 32.0347C39.6339 31.9028 39.6989 31.7816 39.7944 31.6865C39.8898 31.5914 40.0114 31.5267 40.1438 31.5004C40.2761 31.4742 40.4133 31.4877 40.538 31.5391C40.6627 31.5906 40.7693 31.6778 40.8443 31.7896C40.9193 31.9014 40.9593 32.0329 40.9593 32.1674C40.9593 32.3477 40.8874 32.5207 40.7594 32.6482C40.6314 32.7757 40.4579 32.8474 40.2769 32.8474V32.8474ZM40.2769 31.8588C40.216 31.8588 40.1564 31.8768 40.1058 31.9105C40.0552 31.9442 40.0157 31.9922 39.9924 32.0482C39.9691 32.1043 39.963 32.166 39.9749 32.2255C39.9867 32.2851 40.0161 32.3397 40.0591 32.3826C40.1022 32.4256 40.1571 32.4548 40.2168 32.4666C40.2765 32.4785 40.3385 32.4724 40.3947 32.4492C40.451 32.4259 40.4991 32.3866 40.5329 32.3361C40.5668 32.2857 40.5848 32.2264 40.5848 32.1657C40.5846 32.0844 40.5521 32.0064 40.4944 31.9489C40.4367 31.8914 40.3585 31.859 40.2769 31.8588V31.8588Z" fill="#3F75FF"/>
<path d="M51.1612 15.64H49.9329V16.5648H51.1612V15.64Z" fill="#3F75FF"/>
<path d="M51.1646 17.0884H49.9363V18.0132H51.1646V17.0884Z" fill="#3F75FF"/>
<path d="M51.1612 18.5402H49.9329V19.465H51.1612V18.5402Z" fill="#3F75FF"/>
<path d="M51.1646 19.992H49.9363V20.9168H51.1646V19.992Z" fill="#3F75FF"/>
<path d="M51.1646 21.4404H49.9363V22.3652H51.1646V21.4404Z" fill="#3F75FF"/>
<path d="M51.1646 24.3406H49.9363V25.2654H51.1646V24.3406Z" fill="#3F75FF"/>
<path d="M51.1646 22.893H49.9363V23.8178H51.1646V22.893Z" fill="#3F75FF"/>
<path d="M53.5298 16.2919H51.1082V15.9171H53.3737L54.4767 14.818V14.5367H54.852V14.9736L53.5298 16.2919Z" fill="#3F75FF"/>
<path d="M54.6646 14.6718C54.5296 14.6718 54.3977 14.6319 54.2855 14.5572C54.1732 14.4825 54.0858 14.3763 54.0341 14.2521C53.9825 14.1278 53.969 13.9911 53.9953 13.8592C54.0216 13.7273 54.0866 13.6061 54.182 13.511C54.2775 13.4159 54.3991 13.3511 54.5314 13.3249C54.6638 13.2987 54.801 13.3121 54.9257 13.3636C55.0504 13.4151 55.157 13.5022 55.232 13.614C55.307 13.7259 55.347 13.8573 55.347 13.9918C55.347 14.0811 55.3293 14.1696 55.295 14.2521C55.2607 14.3346 55.2105 14.4095 55.1471 14.4727C55.0837 14.5358 55.0085 14.5859 54.9257 14.6201C54.8429 14.6542 54.7542 14.6718 54.6646 14.6718ZM54.6646 13.6841C54.6037 13.6841 54.5441 13.7021 54.4935 13.7358C54.4429 13.7696 54.4034 13.8175 54.3801 13.8736C54.3568 13.9296 54.3507 13.9913 54.3626 14.0508C54.3744 14.1104 54.4038 14.165 54.4468 14.208C54.4899 14.2509 54.5448 14.2801 54.6045 14.2919C54.6642 14.3038 54.7262 14.2977 54.7824 14.2745C54.8387 14.2512 54.8868 14.2119 54.9206 14.1615C54.9544 14.111 54.9725 14.0517 54.9725 13.991C54.9727 13.9505 54.9649 13.9105 54.9496 13.873C54.9342 13.8356 54.9115 13.8016 54.8829 13.7729C54.8543 13.7442 54.8203 13.7215 54.7828 13.7059C54.7453 13.6904 54.7052 13.6824 54.6646 13.6824V13.6841Z" fill="#3F75FF"/>
<path d="M54.8528 26.3729H54.4775V26.095L53.3746 24.99H51.1082V24.616H53.5298L54.8528 25.9386V26.3729Z" fill="#3F75FF"/>
<path d="M54.6646 27.6037C54.5296 27.6037 54.3977 27.5638 54.2855 27.4891C54.1732 27.4144 54.0858 27.3082 54.0341 27.1839C53.9825 27.0597 53.969 26.923 53.9953 26.7911C54.0216 26.6591 54.0866 26.538 54.182 26.4429C54.2775 26.3478 54.3991 26.283 54.5314 26.2568C54.6638 26.2305 54.801 26.244 54.9257 26.2955C55.0504 26.3469 55.157 26.4341 55.232 26.5459C55.307 26.6578 55.347 26.7892 55.347 26.9237C55.347 27.013 55.3293 27.1014 55.295 27.1839C55.2607 27.2664 55.2105 27.3414 55.1471 27.4045C55.0837 27.4677 55.0085 27.5178 54.9257 27.552C54.8429 27.5861 54.7542 27.6037 54.6646 27.6037ZM54.6646 26.616C54.6037 26.616 54.5441 26.634 54.4935 26.6677C54.4429 26.7014 54.4034 26.7494 54.3801 26.8054C54.3568 26.8615 54.3507 26.9232 54.3626 26.9827C54.3744 27.0423 54.4038 27.0969 54.4468 27.1398C54.4899 27.1828 54.5448 27.212 54.6045 27.2238C54.6642 27.2357 54.7262 27.2296 54.7824 27.2064C54.8387 27.1831 54.8868 27.1438 54.9206 27.0933C54.9544 27.0429 54.9725 26.9836 54.9725 26.9229C54.9714 26.8421 54.9385 26.7651 54.8809 26.7083C54.8233 26.6516 54.7456 26.6196 54.6646 26.6194V26.616Z" fill="#3F75FF"/>
<path d="M55.7092 22.0201H55.3339V21.7421L54.225 20.6431H51.1082V20.2725H54.382L55.7092 21.59V22.0201Z" fill="#3F75FF"/>
<path d="M55.5208 23.2526C55.3858 23.2526 55.2539 23.2127 55.1417 23.138C55.0294 23.0633 54.942 22.9571 54.8903 22.8328C54.8387 22.7085 54.8252 22.5718 54.8515 22.4399C54.8778 22.308 54.9428 22.1868 55.0382 22.0917C55.1337 21.9966 55.2553 21.9319 55.3877 21.9056C55.52 21.8794 55.6572 21.8929 55.7819 21.9443C55.9066 21.9958 56.0132 22.083 56.0882 22.1948C56.1632 22.3066 56.2032 22.4381 56.2032 22.5726C56.2032 22.7529 56.1313 22.9259 56.0033 23.0534C55.8753 23.1809 55.7018 23.2526 55.5208 23.2526V23.2526ZM55.5208 22.2649C55.4599 22.2649 55.4003 22.2829 55.3497 22.3166C55.2991 22.3503 55.2596 22.3982 55.2363 22.4543C55.213 22.5104 55.2069 22.5721 55.2188 22.6316C55.2306 22.6911 55.26 22.7458 55.303 22.7887C55.3461 22.8316 55.401 22.8608 55.4607 22.8727C55.5204 22.8845 55.5824 22.8784 55.6386 22.8552C55.6949 22.832 55.743 22.7927 55.7768 22.7422C55.8107 22.6917 55.8287 22.6324 55.8287 22.5717C55.8288 22.5314 55.8209 22.4914 55.8055 22.454C55.7901 22.4167 55.7674 22.3828 55.7388 22.3542C55.7102 22.3256 55.6762 22.3029 55.6388 22.2875C55.6014 22.272 55.5613 22.264 55.5208 22.264V22.2649Z" fill="#3F75FF"/>
<path d="M56.268 24.752H55.444L54.2267 23.5433H51.1082V23.1693H54.382L55.5992 24.378H56.111L57.6174 22.8777H58.4423V23.2517H57.7726L56.268 24.752Z" fill="#3F75FF"/>
<path d="M55.1565 17.7429H51.1082V17.3689H54.9995L56.1025 16.2639V14.9626H56.4778V16.4212L55.1565 17.7429Z" fill="#3F75FF"/>
<path d="M56.7866 18.8173H51.1082V19.1913H56.7866V18.8173Z" fill="#3F75FF"/>
<path d="M56.2913 15.0968C56.1563 15.0968 56.0244 15.0569 55.9122 14.9822C55.7999 14.9075 55.7125 14.8013 55.6608 14.677C55.6092 14.5528 55.5957 14.4161 55.622 14.2842C55.6483 14.1522 55.7133 14.0311 55.8088 13.936C55.9042 13.8409 56.0258 13.7761 56.1582 13.7499C56.2905 13.7236 56.4277 13.7371 56.5524 13.7886C56.6771 13.84 56.7837 13.9272 56.8587 14.039C56.9337 14.1509 56.9737 14.2823 56.9737 14.4168C56.9737 14.5972 56.9018 14.7701 56.7738 14.8977C56.6458 15.0252 56.4723 15.0968 56.2913 15.0968ZM56.2913 14.1091C56.2304 14.1091 56.1708 14.1271 56.1202 14.1608C56.0696 14.1945 56.0301 14.2425 56.0068 14.2985C55.9835 14.3546 55.9774 14.4163 55.9893 14.4758C56.0011 14.5354 56.0305 14.59 56.0735 14.6329C56.1166 14.6759 56.1715 14.7051 56.2312 14.7169C56.2909 14.7288 56.3529 14.7227 56.4091 14.6995C56.4654 14.6762 56.5135 14.6369 56.5473 14.5864C56.5812 14.536 56.5992 14.4767 56.5992 14.416C56.599 14.3347 56.5665 14.2567 56.5088 14.1992C56.4511 14.1417 56.3729 14.1093 56.2913 14.1091V14.1091Z" fill="#3F75FF"/>
<path d="M57.2859 19.6868C57.1509 19.6868 57.019 19.6469 56.9068 19.5722C56.7946 19.4975 56.7071 19.3913 56.6555 19.267C56.6038 19.1428 56.5903 19.0061 56.6166 18.8742C56.643 18.7422 56.708 18.6211 56.8034 18.526C56.8988 18.4309 57.0204 18.3661 57.1528 18.3399C57.2852 18.3136 57.4224 18.3271 57.5471 18.3786C57.6717 18.43 57.7783 18.5172 57.8533 18.629C57.9283 18.7409 57.9683 18.8723 57.9683 19.0068C57.9683 19.1872 57.8964 19.3601 57.7684 19.4876C57.6405 19.6152 57.4669 19.6868 57.2859 19.6868V19.6868ZM57.2859 18.6991C57.225 18.6991 57.1655 18.7171 57.1148 18.7508C57.0642 18.7845 57.0247 18.8325 57.0014 18.8885C56.9781 18.9446 56.972 19.0063 56.9839 19.0658C56.9958 19.1253 57.0251 19.18 57.0682 19.2229C57.1112 19.2658 57.1661 19.2951 57.2258 19.3069C57.2856 19.3188 57.3475 19.3127 57.4038 19.2895C57.46 19.2662 57.5081 19.2269 57.542 19.1764C57.5758 19.126 57.5938 19.0667 57.5938 19.006C57.594 18.9656 57.5861 18.9255 57.5707 18.8881C57.5553 18.8508 57.5326 18.8168 57.504 18.7881C57.4754 18.7595 57.4414 18.7367 57.404 18.7212C57.3666 18.7056 57.3265 18.6975 57.2859 18.6974V18.6991Z" fill="#3F75FF"/>
<path d="M58.9397 23.7498C58.8048 23.7498 58.6728 23.7099 58.5606 23.6352C58.4484 23.5605 58.3609 23.4543 58.3093 23.3301C58.2576 23.2058 58.2441 23.0691 58.2704 22.9372C58.2968 22.8053 58.3618 22.6841 58.4572 22.589C58.5526 22.4939 58.6742 22.4291 58.8066 22.4029C58.939 22.3767 59.0762 22.3901 59.2009 22.4416C59.3256 22.4931 59.4321 22.5802 59.5071 22.692C59.5821 22.8039 59.6221 22.9353 59.6221 23.0698C59.6221 23.1591 59.6045 23.2476 59.5702 23.3301C59.5359 23.4126 59.4856 23.4875 59.4223 23.5507C59.3589 23.6138 59.2837 23.6639 59.2009 23.6981C59.1181 23.7322 59.0293 23.7498 58.9397 23.7498ZM58.9397 22.7621C58.8788 22.7621 58.8193 22.7801 58.7686 22.8138C58.718 22.8476 58.6785 22.8955 58.6552 22.9516C58.6319 23.0076 58.6258 23.0693 58.6377 23.1288C58.6496 23.1884 58.6789 23.243 58.722 23.286C58.765 23.3289 58.8199 23.3581 58.8797 23.3699C58.9394 23.3818 59.0013 23.3757 59.0576 23.3525C59.1138 23.3293 59.1619 23.2899 59.1958 23.2395C59.2296 23.189 59.2477 23.1297 59.2477 23.069C59.247 22.988 59.2142 22.9106 59.1566 22.8536C59.0989 22.7967 59.0209 22.7647 58.9397 22.7647V22.7621Z" fill="#3F75FF"/>
<path d="M52.9933 21.7175H51.1082V22.0915H52.9933V21.7175Z" fill="#3F75FF"/>
<path d="M53.489 22.5853C53.3541 22.5853 53.2221 22.5454 53.1099 22.4707C52.9977 22.396 52.9102 22.2898 52.8586 22.1655C52.8069 22.0413 52.7934 21.9046 52.8198 21.7727C52.8461 21.6407 52.9111 21.5196 53.0065 21.4245C53.1019 21.3294 53.2235 21.2646 53.3559 21.2384C53.4883 21.2121 53.6255 21.2256 53.7502 21.2771C53.8749 21.3285 53.9814 21.4157 54.0564 21.5275C54.1314 21.6393 54.1714 21.7708 54.1714 21.9053C54.1714 22.0857 54.0995 22.2586 53.9716 22.3861C53.8436 22.5137 53.67 22.5853 53.489 22.5853ZM53.489 21.5976C53.4281 21.5976 53.3686 21.6156 53.318 21.6493C53.2673 21.683 53.2279 21.731 53.2045 21.787C53.1812 21.8431 53.1751 21.9048 53.187 21.9643C53.1989 22.0238 53.2282 22.0785 53.2713 22.1214C53.3144 22.1644 53.3692 22.1936 53.429 22.2054C53.4887 22.2173 53.5506 22.2112 53.6069 22.188C53.6631 22.1647 53.7112 22.1254 53.7451 22.0749C53.7789 22.0245 53.797 21.9652 53.797 21.9045C53.7967 21.8232 53.7642 21.7452 53.7065 21.6877C53.6488 21.6302 53.5706 21.5978 53.489 21.5976V21.5976Z" fill="#3F75FF"/>
<path d="M33.5364 24.3448H32.3081V25.2696H33.5364V24.3448Z" fill="#3F75FF"/>
<path d="M33.5323 22.8964H32.304V23.8212H33.5323V22.8964Z" fill="#3F75FF"/>
<path d="M33.5364 21.4446H32.3081V22.3694H33.5364V21.4446Z" fill="#3F75FF"/>
<path d="M33.5323 19.9962H32.304V20.921H33.5323V19.9962Z" fill="#3F75FF"/>
<path d="M33.5364 18.5436H32.3081V19.4684H33.5364V18.5436Z" fill="#3F75FF"/>
<path d="M33.5364 15.6434H32.3081V16.5682H33.5364V15.6434Z" fill="#3F75FF"/>
<path d="M33.5323 17.096H32.304V18.0208H33.5323V17.096Z" fill="#3F75FF"/>
<path d="M28.9918 26.3729H28.6165V25.9403L29.9429 24.6177H32.3611V24.9917H30.099L28.9901 26.0967L28.9918 26.3729Z" fill="#3F75FF"/>
<path d="M28.8032 27.6037C28.6683 27.6037 28.5363 27.5638 28.4241 27.4891C28.3119 27.4144 28.2244 27.3082 28.1728 27.1839C28.1211 27.0597 28.1076 26.923 28.134 26.7911C28.1603 26.6591 28.2253 26.538 28.3207 26.4429C28.4162 26.3478 28.5377 26.283 28.6701 26.2568C28.8025 26.2305 28.9397 26.244 29.0644 26.2955C29.1891 26.3469 29.2957 26.4341 29.3706 26.5459C29.4456 26.6578 29.4856 26.7892 29.4856 26.9237C29.4856 27.1041 29.4138 27.277 29.2858 27.4045C29.1578 27.5321 28.9842 27.6037 28.8032 27.6037V27.6037ZM28.8032 26.616C28.7423 26.616 28.6828 26.634 28.6322 26.6677C28.5815 26.7014 28.5421 26.7494 28.5188 26.8054C28.4954 26.8615 28.4894 26.9232 28.5012 26.9827C28.5131 27.0423 28.5424 27.0969 28.5855 27.1398C28.6286 27.1828 28.6834 27.212 28.7432 27.2238C28.8029 27.2357 28.8648 27.2296 28.9211 27.2064C28.9774 27.1831 29.0254 27.1438 29.0593 27.0933C29.0931 27.0429 29.1112 26.9836 29.1112 26.9229C29.1101 26.8421 29.0772 26.7651 29.0195 26.7083C28.9619 26.6516 28.8843 26.6196 28.8032 26.6194V26.616Z" fill="#3F75FF"/>
<path d="M32.3611 16.2919H29.9437L28.6165 14.9736V14.5367H28.9918V14.818L30.099 15.9171H32.3611V16.2919Z" fill="#3F75FF"/>
<path d="M28.8032 14.6718C28.6683 14.6718 28.5363 14.6319 28.4241 14.5572C28.3119 14.4825 28.2244 14.3763 28.1728 14.2521C28.1211 14.1278 28.1076 13.9911 28.134 13.8592C28.1603 13.7273 28.2253 13.6061 28.3207 13.511C28.4162 13.4159 28.5377 13.3511 28.6701 13.3249C28.8025 13.2987 28.9397 13.3121 29.0644 13.3636C29.1891 13.4151 29.2957 13.5022 29.3706 13.614C29.4456 13.7259 29.4856 13.8573 29.4856 13.9918C29.4856 14.1722 29.4138 14.3451 29.2858 14.4727C29.1578 14.6002 28.9842 14.6718 28.8032 14.6718ZM28.8032 13.6841C28.7423 13.6841 28.6828 13.7021 28.6322 13.7358C28.5815 13.7696 28.5421 13.8175 28.5188 13.8736C28.4954 13.9296 28.4894 13.9913 28.5012 14.0508C28.5131 14.1104 28.5424 14.165 28.5855 14.208C28.6286 14.2509 28.6834 14.2801 28.7432 14.2919C28.8029 14.3038 28.8648 14.2977 28.9211 14.2745C28.9774 14.2512 29.0254 14.2119 29.0593 14.1615C29.0931 14.111 29.1112 14.0517 29.1112 13.991C29.1114 13.9505 29.1036 13.9105 29.0882 13.873C29.0729 13.8356 29.0502 13.8016 29.0216 13.7729C28.993 13.7442 28.959 13.7215 28.9215 13.7059C28.884 13.6904 28.8438 13.6824 28.8032 13.6824V13.6841Z" fill="#3F75FF"/>
<path d="M32.3645 20.6439H29.0864L27.76 19.3213V18.8887H28.1353V19.1666L29.2442 20.2716H32.3662L32.3645 20.6439Z" fill="#3F75FF"/>
<path d="M27.951 19.0188C27.816 19.0188 27.6841 18.9789 27.5718 18.9042C27.4596 18.8294 27.3721 18.7232 27.3205 18.599C27.2689 18.4747 27.2553 18.338 27.2817 18.2061C27.308 18.0742 27.373 17.953 27.4684 17.8579C27.5639 17.7628 27.6855 17.6981 27.8178 17.6718C27.9502 17.6456 28.0874 17.659 28.2121 17.7105C28.3368 17.762 28.4434 17.8491 28.5184 17.961C28.5933 18.0728 28.6334 18.2043 28.6334 18.3388C28.6334 18.5191 28.5615 18.6921 28.4335 18.8196C28.3055 18.9471 28.1319 19.0188 27.951 19.0188V19.0188ZM27.951 18.0311C27.8901 18.0311 27.8305 18.049 27.7799 18.0828C27.7292 18.1165 27.6898 18.1644 27.6665 18.2205C27.6432 18.2765 27.6371 18.3382 27.6489 18.3978C27.6608 18.4573 27.6902 18.512 27.7332 18.5549C27.7763 18.5978 27.8311 18.627 27.8909 18.6389C27.9506 18.6507 28.0125 18.6446 28.0688 18.6214C28.1251 18.5982 28.1732 18.5588 28.207 18.5084C28.2408 18.4579 28.2589 18.3986 28.2589 18.3379C28.2589 18.2565 28.2264 18.1785 28.1687 18.1209C28.1109 18.0634 28.0326 18.0311 27.951 18.0311V18.0311Z" fill="#3F75FF"/>
<path d="M25.8545 18.031H25.0254V17.657H25.6984L27.2005 16.1559H28.0245L29.2418 17.3689H32.3638V17.7429H29.0865L27.8693 16.5299H27.3575L25.8545 18.031Z" fill="#3F75FF"/>
<path d="M27.3651 25.9462H26.9897V24.4902L28.317 23.1727H32.3636V23.5467H28.4723L27.3634 24.6457L27.3651 25.9462Z" fill="#3F75FF"/>
<path d="M32.3637 21.7175H26.6819V22.0915H32.3637V21.7175Z" fill="#3F75FF"/>
<path d="M27.1773 27.1779C27.0423 27.1779 26.9104 27.138 26.7982 27.0633C26.6859 26.9886 26.5985 26.8824 26.5468 26.7581C26.4952 26.6339 26.4817 26.4971 26.508 26.3652C26.5343 26.2333 26.5993 26.1122 26.6947 26.0171C26.7902 25.922 26.9118 25.8572 27.0441 25.831C27.1765 25.8047 27.3137 25.8182 27.4384 25.8697C27.5631 25.9211 27.6697 26.0083 27.7447 26.1201C27.8197 26.2319 27.8597 26.3634 27.8597 26.4979C27.8597 26.6783 27.7878 26.8512 27.6598 26.9787C27.5318 27.1063 27.3583 27.1779 27.1773 27.1779V27.1779ZM27.1773 26.1902C27.1164 26.1902 27.0568 26.2082 27.0062 26.2419C26.9556 26.2756 26.9161 26.3236 26.8928 26.3796C26.8695 26.4357 26.8634 26.4974 26.8753 26.5569C26.8871 26.6164 26.9165 26.6711 26.9595 26.714C27.0026 26.7569 27.0575 26.7862 27.1172 26.798C27.1769 26.8098 27.2388 26.8038 27.2951 26.7805C27.3514 26.7573 27.3995 26.718 27.4333 26.6675C27.4671 26.6171 27.4852 26.5577 27.4852 26.4971C27.4853 26.4567 27.4774 26.4167 27.462 26.3794C27.4466 26.342 27.4239 26.3081 27.3953 26.2795C27.3667 26.2509 27.3327 26.2283 27.2953 26.2128C27.2579 26.1973 27.2178 26.1894 27.1773 26.1894V26.1902Z" fill="#3F75FF"/>
<path d="M26.1861 22.5853C26.0511 22.5853 25.9192 22.5454 25.8069 22.4707C25.6947 22.396 25.6073 22.2898 25.5556 22.1655C25.504 22.0413 25.4904 21.9046 25.5168 21.7727C25.5431 21.6407 25.6081 21.5196 25.7035 21.4245C25.799 21.3294 25.9206 21.2646 26.0529 21.2384C26.1853 21.2121 26.3225 21.2256 26.4472 21.2771C26.5719 21.3285 26.6785 21.4157 26.7535 21.5275C26.8284 21.6393 26.8685 21.7708 26.8685 21.9053C26.8685 22.0857 26.7966 22.2586 26.6686 22.3861C26.5406 22.5137 26.367 22.5853 26.1861 22.5853ZM26.1861 21.5976C26.1252 21.5976 26.0656 21.6156 26.015 21.6493C25.9643 21.683 25.9249 21.731 25.9016 21.787C25.8783 21.8431 25.8722 21.9048 25.884 21.9643C25.8959 22.0238 25.9253 22.0785 25.9683 22.1214C26.0114 22.1644 26.0662 22.1936 26.126 22.2054C26.1857 22.2173 26.2476 22.2112 26.3039 22.188C26.3602 22.1647 26.4083 22.1254 26.4421 22.0749C26.4759 22.0245 26.494 21.9652 26.494 21.9045C26.4938 21.8232 26.4613 21.7452 26.4036 21.6877C26.3459 21.6302 26.2677 21.5978 26.1861 21.5976V21.5976Z" fill="#3F75FF"/>
<path d="M24.5296 18.5266C24.3946 18.5266 24.2627 18.4867 24.1504 18.412C24.0382 18.3372 23.9508 18.231 23.8991 18.1068C23.8475 17.9825 23.8339 17.8458 23.8603 17.7139C23.8866 17.582 23.9516 17.4608 24.047 17.3657C24.1425 17.2706 24.2641 17.2059 24.3964 17.1796C24.5288 17.1534 24.666 17.1669 24.7907 17.2183C24.9154 17.2698 25.022 17.357 25.097 17.4688C25.1719 17.5806 25.212 17.7121 25.212 17.8466C25.212 18.0269 25.1401 18.1999 25.0121 18.3274C24.8841 18.4549 24.7106 18.5266 24.5296 18.5266ZM24.5296 17.5389C24.4687 17.5389 24.4091 17.5569 24.3585 17.5906C24.3079 17.6243 24.2684 17.6722 24.2451 17.7283C24.2218 17.7844 24.2157 17.8461 24.2276 17.9056C24.2394 17.9651 24.2688 18.0198 24.3118 18.0627C24.3549 18.1056 24.4098 18.1348 24.4695 18.1467C24.5292 18.1585 24.5911 18.1524 24.6474 18.1292C24.7037 18.106 24.7518 18.0667 24.7856 18.0162C24.8194 17.9657 24.8375 17.9064 24.8375 17.8457C24.8376 17.8053 24.8297 17.7653 24.8143 17.7279C24.7989 17.6905 24.7763 17.6565 24.7477 17.6279C24.7191 17.5992 24.6851 17.5765 24.6477 17.5609C24.6103 17.5453 24.5701 17.5373 24.5296 17.5372V17.5389Z" fill="#3F75FF"/>
<path d="M32.3645 18.8173H30.4751V19.1913H32.3645V18.8173Z" fill="#3F75FF"/>
<path d="M29.9795 19.6868C29.8446 19.6868 29.7126 19.6469 29.6004 19.5722C29.4882 19.4975 29.4007 19.3913 29.3491 19.267C29.2974 19.1428 29.2839 19.0061 29.3102 18.8742C29.3366 18.7422 29.4016 18.6211 29.497 18.526C29.5924 18.4309 29.714 18.3661 29.8464 18.3399C29.9788 18.3136 30.116 18.3271 30.2407 18.3786C30.3654 18.43 30.4719 18.5172 30.5469 18.629C30.6219 18.7409 30.6619 18.8723 30.6619 19.0068C30.6619 19.1872 30.59 19.3601 30.462 19.4876C30.3341 19.6152 30.1605 19.6868 29.9795 19.6868ZM29.9795 18.6991C29.9186 18.6991 29.8591 18.7171 29.8084 18.7508C29.7578 18.7845 29.7183 18.8325 29.695 18.8885C29.6717 18.9446 29.6656 19.0063 29.6775 19.0658C29.6894 19.1253 29.7187 19.18 29.7618 19.2229C29.8048 19.2658 29.8597 19.2951 29.9194 19.3069C29.9792 19.3188 30.0411 19.3127 30.0974 19.2895C30.1536 19.2662 30.2017 19.2269 30.2356 19.1764C30.2694 19.126 30.2875 19.0667 30.2875 19.006C30.2876 18.9656 30.2797 18.9255 30.2643 18.8881C30.2489 18.8508 30.2262 18.8168 30.1976 18.7881C30.169 18.7595 30.135 18.7367 30.0976 18.7212C30.0602 18.7056 30.0201 18.6975 29.9795 18.6974V18.6991Z" fill="#3F75FF"/>
<path d="M41.6895 40.8C37.6406 40.8 33.6825 39.6036 30.3159 37.362C26.9493 35.1204 24.3254 31.9344 22.7759 28.2068C21.2264 24.4791 20.821 20.3774 21.6109 16.4202C22.4008 12.463 24.3506 8.82802 27.2136 5.97503C30.0767 3.12204 33.7245 1.17913 37.6956 0.391989C41.6668 -0.395149 45.7831 0.00883904 49.5238 1.55287C53.2646 3.09689 56.4619 5.71161 58.7114 9.06638C60.9609 12.4211 62.1615 16.3653 62.1615 20.4C62.1554 25.8086 59.9966 30.9939 56.1587 34.8183C52.3208 38.6427 47.1172 40.7939 41.6895 40.8V40.8ZM41.6895 1.87001C38.0117 1.87001 34.4165 2.95677 31.3585 4.99288C28.3005 7.02898 25.9171 9.92297 24.5096 13.3089C23.1022 16.6948 22.7339 20.4206 23.4514 24.015C24.1689 27.6095 25.94 30.9112 28.5406 33.5027C31.1412 36.0942 34.4546 37.859 38.0617 38.574C41.6689 39.2889 45.4078 38.922 48.8057 37.5195C52.2036 36.117 55.1078 33.742 57.151 30.6947C59.1943 27.6475 60.2849 24.0649 60.2849 20.4C60.2795 15.4873 58.3186 10.7773 54.8324 7.30359C51.3463 3.82984 46.6196 1.87603 41.6895 1.87086V1.87001Z" fill="#3F75FF"/>
<path d="M1.28626 27.8519C1.11549 27.8615 0.944621 27.8351 0.78477 27.7744C0.624919 27.7138 0.479674 27.6203 0.358489 27.5C0.237305 27.3798 0.142899 27.2354 0.0814167 27.0764C0.0199346 26.9173 -0.00724467 26.7472 0.00164731 26.5769V2.8288C-0.00464499 2.65677 0.0239243 2.48524 0.0856485 2.32446C0.147373 2.16368 0.240985 2.01694 0.360894 1.89302C0.480803 1.7691 0.624547 1.67053 0.783541 1.60321C0.942534 1.53589 1.11351 1.50119 1.28626 1.50119C1.45902 1.50119 1.63 1.53589 1.78899 1.60321C1.94798 1.67053 2.09173 1.7691 2.21164 1.89302C2.33154 2.01694 2.42516 2.16368 2.48688 2.32446C2.54861 2.48524 2.57718 2.65677 2.57088 2.8288V26.5769C2.57977 26.7472 2.55259 26.9173 2.49111 27.0764C2.42963 27.2354 2.33522 27.3798 2.21404 27.5C2.09286 27.6203 1.94761 27.7138 1.78776 27.7744C1.62791 27.8351 1.45704 27.8615 1.28626 27.8519V27.8519ZM2.13159 21.6877L0.542449 19.9733L12.1023 9.56505C12.2122 9.45268 12.3437 9.36348 12.4889 9.30274C12.6342 9.242 12.7901 9.21095 12.9476 9.21145C13.1047 9.22358 13.2577 9.26753 13.3972 9.3406C13.5367 9.41368 13.6597 9.51435 13.7588 9.63645C13.8728 9.74864 13.9629 9.88255 14.0239 10.0302C14.0849 10.1778 14.1154 10.3362 14.1137 10.4958C14.1052 10.6508 14.0626 10.802 13.9889 10.9388C13.9152 11.0756 13.8122 11.1945 13.6872 11.2871L2.13159 21.6877ZM13.7929 27.6828C13.6716 27.7966 13.5277 27.8838 13.3705 27.9388C13.2133 27.9939 13.0463 28.0155 12.8802 28.0024C12.7181 27.9824 12.5621 27.9285 12.4223 27.8443C12.2825 27.7601 12.1621 27.6474 12.069 27.5136L4.53108 18.2886L6.3565 16.6736L13.9618 26.0032C14.0671 26.1191 14.1483 26.2546 14.2006 26.402C14.2528 26.5494 14.2752 26.7056 14.2664 26.8617C14.2481 27.0241 14.1966 27.1811 14.115 27.3229C14.0334 27.4648 13.9235 27.5884 13.7921 27.6862L13.7929 27.6828Z" fill="#3F75FF"/>
</svg>
